/* XPM */
static char * datefont_xpm[] = {
"5 768 2 1",
" 	c None",
".	c #FFFFFF",
"     ",
"     ",
"     ",
"     ",
"     ",
"     ",
"     ",
"     ",
".    ",
".    ",
".    ",
".    ",
".    ",
"     ",
".    ",
"     ",
". .  ",
". .  ",
"     ",
"     ",
"     ",
"     ",
"     ",
"     ",
"     ",
" . . ",
".....",
" . . ",
" . . ",
".....",
" . . ",
"     ",
"  .  ",
" ....",
". .  ",
" ... ",
"  . .",
".... ",
"  .  ",
"     ",
".  . ",
".  . ",
"  .  ",
" ..  ",
" .   ",
".  . ",
".  . ",
"     ",
" .   ",
". .  ",
".    ",
" . . ",
". .  ",
". .  ",
" . . ",
"     ",
".    ",
".    ",
"     ",
"     ",
"     ",
"     ",
"     ",
"     ",
" .   ",
".    ",
".    ",
".    ",
".    ",
".    ",
" .   ",
"     ",
".    ",
" .   ",
" .   ",
" .   ",
" .   ",
" .   ",
".    ",
"     ",
"     ",
"     ",
".  . ",
" ..  ",
".... ",
" ..  ",
".  . ",
"     ",
"     ",
"     ",
"     ",
" .   ",
"...  ",
" .   ",
"     ",
"     ",
"     ",
"     ",
"     ",
"     ",
"     ",
" .   ",
".    ",
"     ",
"     ",
"     ",
"     ",
"...  ",
"     ",
"     ",
"     ",
"     ",
"     ",
"     ",
"     ",
"     ",
"     ",
".    ",
".    ",
"     ",
"  .  ",
"  .  ",
" .   ",
" .   ",
" .   ",
".    ",
".    ",
"     ",
" ... ",
".   .",
".   .",
".   .",
".   .",
".   .",
" ... ",
"     ",
" .   ",
"..   ",
" .   ",
" .   ",
" .   ",
" .   ",
"...  ",
"     ",
" ... ",
".   .",
"    .",
"   . ",
"  .  ",
" .   ",
".....",
"     ",
" ... ",
".   .",
"    .",
"  .. ",
"    .",
".   .",
" ... ",
"     ",
"   ..",
"  . .",
" .  .",
".....",
"    .",
"    .",
"    .",
"     ",
".....",
".    ",
".... ",
".   .",
"    .",
".   .",
" ... ",
"     ",
" ... ",
".   .",
".    ",
".... ",
".   .",
".   .",
" ... ",
"     ",
".....",
"    .",
"    .",
"   . ",
"  .  ",
"  .  ",
"  .  ",
"     ",
" ... ",
".   .",
".   .",
" ... ",
".   .",
".   .",
" ... ",
"     ",
" ... ",
".   .",
".   .",
" ....",
"    .",
".   .",
" ... ",
"     ",
"     ",
"     ",
"     ",
".    ",
"     ",
".    ",
"     ",
"     ",
"     ",
"     ",
"     ",
" .   ",
"     ",
" .   ",
".    ",
"     ",
"     ",
"     ",
"  .  ",
" .   ",
".    ",
" .   ",
"  .  ",
"     ",
"     ",
"     ",
"     ",
".... ",
"     ",
".... ",
"     ",
"     ",
"     ",
"     ",
".    ",
" .   ",
"  .  ",
" .   ",
".    ",
"     ",
"...  ",
"   . ",
"   . ",
" ..  ",
" .   ",
"     ",
" .   ",
"     ",
" ..  ",
".  . ",
". .. ",
". .. ",
". .. ",
".    ",
" ... ",
"     ",
" ..  ",
".  . ",
".  . ",
".... ",
".  . ",
".  . ",
".  . ",
"     ",
"...  ",
".  . ",
".  . ",
"...  ",
".  . ",
".  . ",
"...  ",
"     ",
" ..  ",
".  . ",
".    ",
".    ",
".    ",
".  . ",
" ..  ",
"     ",
"...  ",
".  . ",
".  . ",
".  . ",
".  . ",
".  . ",
"...  ",
"     ",
".... ",
".    ",
".    ",
"...  ",
".    ",
".    ",
".... ",
"     ",
".... ",
".    ",
".    ",
"...  ",
".    ",
".    ",
".    ",
"     ",
" ..  ",
".  . ",
".    ",
". .. ",
".  . ",
".  . ",
" ..  ",
"     ",
".  . ",
".  . ",
".  . ",
".... ",
".  . ",
".  . ",
".  . ",
"     ",
"...  ",
" .   ",
" .   ",
" .   ",
" .   ",
" .   ",
"...  ",
"     ",
"  .. ",
"   . ",
"   . ",
"   . ",
"   . ",
".  . ",
" ..  ",
"     ",
".  . ",
".  . ",
". .  ",
"..   ",
". .  ",
".  . ",
".  . ",
"     ",
".    ",
".    ",
".    ",
".    ",
".    ",
".    ",
".... ",
"     ",
".   .",
".. ..",
".. ..",
". . .",
". . .",
".   .",
".   .",
"     ",
".  . ",
".. . ",
".. . ",
". .. ",
". .. ",
".  . ",
".  . ",
"     ",
" ..  ",
".  . ",
".  . ",
".  . ",
".  . ",
".  . ",
" ..  ",
"     ",
"...  ",
".  . ",
".  . ",
"...  ",
".    ",
".    ",
".    ",
"     ",
" ... ",
".   .",
".   .",
".   .",
". . .",
".  . ",
" .. .",
"     ",
"...  ",
".  . ",
".  . ",
"...  ",
".  . ",
".  . ",
".  . ",
"     ",
" ..  ",
".  . ",
".    ",
" ..  ",
"   . ",
".  . ",
" ..  ",
"     ",
"...  ",
" .   ",
" .   ",
" .   ",
" .   ",
" .   ",
" .   ",
"     ",
".  . ",
".  . ",
".  . ",
".  . ",
".  . ",
".  . ",
" ..  ",
"     ",
".   .",
".   .",
".   .",
".   .",
".   .",
" . . ",
"  .  ",
"     ",
".   .",
".   .",
".   .",
".   .",
". . .",
".. ..",
".   .",
"     ",
".   .",
".   .",
" . . ",
"  .  ",
" . . ",
".   .",
".   .",
"     ",
".   .",
".   .",
" . . ",
"  .  ",
"  .  ",
"  .  ",
"  .  ",
"     ",
".... ",
"   . ",
"  .  ",
" .   ",
".    ",
".    ",
".... ",
"     ",
"...  ",
".    ",
".    ",
".    ",
".    ",
".    ",
"...  ",
"     ",
".    ",
".    ",
" .   ",
" .   ",
" .   ",
"  .  ",
"  .  ",
"     ",
"...  ",
"  .  ",
"  .  ",
"  .  ",
"  .  ",
"  .  ",
"...  ",
"     ",
" .   ",
". .  ",
"     ",
"     ",
"     ",
"     ",
"     ",
"     ",
"     ",
"     ",
"     ",
"     ",
"     ",
"     ",
".... ",
"     ",
" .   ",
"  .  ",
"     ",
"     ",
"     ",
"     ",
"     ",
"     ",
"     ",
"     ",
" ..  ",
"   . ",
" ... ",
".  . ",
" ... ",
"     ",
".    ",
".    ",
"...  ",
".  . ",
".  . ",
".  . ",
"...  ",
"     ",
"     ",
"     ",
" ..  ",
".  . ",
".    ",
".  . ",
" ..  ",
"     ",
"   . ",
"   . ",
" ... ",
".  . ",
".  . ",
".  . ",
" ... ",
"     ",
"     ",
"     ",
" ..  ",
".  . ",
".... ",
".    ",
" ... ",
"     ",
"  .  ",
" . . ",
" .   ",
".... ",
" .   ",
" .   ",
" .   ",
"     ",
"     ",
"     ",
" ... ",
".  . ",
".  . ",
" ... ",
"   . ",
"...  ",
".    ",
".    ",
"...  ",
".  . ",
".  . ",
".  . ",
".  . ",
"     ",
".    ",
"     ",
".    ",
".    ",
".    ",
".    ",
".    ",
"     ",
"  .  ",
"     ",
"  .  ",
"  .  ",
"  .  ",
"  .  ",
". .  ",
" .   ",
".    ",
".    ",
".  . ",
". .  ",
"..   ",
". .  ",
".  . ",
"     ",
".    ",
".    ",
".    ",
".    ",
".    ",
".    ",
"..   ",
"     ",
"     ",
"     ",
".. . ",
". . .",
". . .",
". . .",
". . .",
"     ",
"     ",
"     ",
"...  ",
".  . ",
".  . ",
".  . ",
".  . ",
"     ",
"     ",
"     ",
" ..  ",
".  . ",
".  . ",
".  . ",
" ..  ",
"     ",
"     ",
"     ",
"...  ",
".  . ",
".  . ",
"...  ",
".    ",
"     ",
"     ",
"     ",
" ... ",
".  . ",
".  . ",
" ... ",
"   . ",
"     ",
"     ",
"     ",
"...  ",
".  . ",
".    ",
".    ",
".    ",
"     ",
"     ",
"     ",
" ... ",
".    ",
" ..  ",
"   . ",
"...  ",
"     ",
" .   ",
" .   ",
".... ",
" .   ",
" .   ",
" . . ",
"  .  ",
"     ",
"     ",
"     ",
".  . ",
".  . ",
".  . ",
".  . ",
" ... ",
"     ",
"     ",
"     ",
".  . ",
".  . ",
".  . ",
". .  ",
" .   ",
"     ",
"     ",
"     ",
".   .",
".   .",
".   .",
". . .",
" . . ",
"     ",
"     ",
"     ",
".   .",
" . . ",
"  .  ",
" . . ",
".   .",
"     ",
"     ",
"     ",
".  . ",
".  . ",
" ... ",
"   . ",
"...  ",
"     ",
"     ",
"     ",
".... ",
"   . ",
" ..  ",
".    ",
".... ",
"     ",
"  .  ",
" .   ",
" .   ",
".    ",
" .   ",
" .   ",
"  .  ",
"     ",
".    ",
".    ",
".    ",
".    ",
".    ",
".    ",
".    ",
"     ",
".    ",
" .   ",
" .   ",
"  .  ",
" .   ",
" .   ",
".    ",
"     ",
" . . ",
". .  ",
"     ",
"     ",
"     ",
"     ",
"     ",
"     ",
".... ",
"     ",
"     ",
"     ",
"     ",
"     ",
"     ",
"     "};
