/* XPM */
static char * digits_xpm[] = {
"66 7 5 1",
" 	c None",
".	c #000000",
"+	c #004941",
"@	c #007D71",
"#	c #20B0AC",
"..###.....@..@###@.@###@.@...@.@###@.@###@.@###@.@###@.@###@......",
".#...#....#......#.....#.#...#.#.....#.........#.#...#.#...#.#...#",
".#...#....#......#.....#.#...#.#.....#.........#.#...#.#...#....#.",
".@...@....@..@###@..###@.@###@.@###@.@###@.....@.+###+.@###@...#..",
".#...#....#..#.........#.....#.....#.#...#.....#.#...#.....#..#...",
".#...#....#..#.........#.....#.....#.#...#.....#.#...#.....#.#...#",
"..###.....#..@###@.@###@.....@.@###@.@###@.....@.@###@.@###@......"};
