/* XPM */
static char * mem_58_xpm[] = {
"58 58 5 1",
" 	c #000000",
".	c #062A00",
"+	c #202020",
"@	c #308CF0",
"#	c #C1C400",
"                                                          ",
"                                                          ",
"     @ @@@ @@@ @@@ @@@ @@@ @ @         @@@ @@@ @@@ @  @   ",
"   @ @ @ @ @ @ @ @ @ @ @ @ @ @         @ @ @ @ @ @ @ @    ",
"   @ @ @   @     @ @ @ @ @ @ @  ####   @ @   @ @ @   @    ",
"   @ @ @   @@@   @ @ @ @ @ @ @  # # #  @ @   @ @ @   @    ",
"   @ @ @@@ @ @   @ @@@ @ @ @@   # # #  @ @   @ @@@  @     ",
"   @@@   @ @ @   @ @ @ @@@ @ @  # # #  @ @   @ @ @  @     ",
"     @ @ @ @ @   @ @ @   @ @ @  # # #  @ @   @ @ @  @ @   ",
"     @ @@@ @@@   @ @@@ @@@ @ @         @@@   @ @@@ @  @   ",
"                                                          ",
"                       @@@ @ @         @@@ @@@ @@@ @  @   ",
"                       @ @ @ @         @ @ @ @ @ @ @ @    ",
"                       @ @ @ @   ####  @ @ @ @ @ @   @    ",
"                       @ @ @ @  #      @ @ @ @ @ @   @    ",
"                       @ @ @@    ###   @ @ @ @ @ @  @     ",
"                       @ @ @ @      #  @ @ @ @ @ @  @     ",
"                       @ @ @ @  ####   @ @ @ @ @ @  @ @   ",
"                       @@@ @ @         @@@ @@@ @@@ @  @   ",
"                                                          ",
"  @@@@@@@@@@@@@@@@@@@@@@@@@@@@@@@@@@@@@@@@@@@@@@@@@@@@@@  ",
"                                                          ",
"  +++++++.+++++++.+++++++.+++++++.+++++++.+++++++.++++++  ",
"  +++++++.+++++++.+++++++.+++++++.+++++++.+++++++.++++++  ",
"  +++++++.+++++++.+++++++.+++++++.+++++++.+++++++.++++++  ",
"  ......................................................  ",
"  +++++++.+++++++.+++++++.+++++++.+++++++.+++++++.++++++  ",
"  +++++++.+++++++.+++++++.+++++++.+++++++.+++++++.++++++  ",
"  +++++++.+++++++.+++++++.+++++++.+++++++.+++++++.++++++  ",
"  +++++++.+++++++.+++++++.+++++++.+++++++.+++++++.++++++  ",
"  +++++++.+++++++.+++++++.+++++++.+++++++.+++++++.++++++  ",
"  +++++++.+++++++.+++++++.+++++++.+++++++.+++++++.++++++  ",
"  +++++++.+++++++.+++++++.+++++++.+++++++.+++++++.++++++  ",
"  ......................................................  ",
"  +++++++.+++++++.+++++++.+++++++.+++++++.+++++++.++++++  ",
"  +++++++.+++++++.+++++++.+++++++.+++++++.+++++++.++++++  ",
"  +++++++.+++++++.+++++++.+++++++.+++++++.+++++++.++++++  ",
"  +++++++.+++++++.+++++++.+++++++.+++++++.+++++++.++++++  ",
"  +++++++.+++++++.+++++++.+++++++.+++++++.+++++++.++++++  ",
"  +++++++.+++++++.+++++++.+++++++.+++++++.+++++++.++++++  ",
"  +++++++.+++++++.+++++++.+++++++.+++++++.+++++++.++++++  ",
"  ......................................................  ",
"  +++++++.+++++++.+++++++.+++++++.+++++++.+++++++.++++++  ",
"  +++++++.+++++++.+++++++.+++++++.+++++++.+++++++.++++++  ",
"  +++++++.+++++++.+++++++.+++++++.+++++++.+++++++.++++++  ",
"  +++++++.+++++++.+++++++.+++++++.+++++++.+++++++.++++++  ",
"  +++++++.+++++++.+++++++.+++++++.+++++++.+++++++.++++++  ",
"  +++++++.+++++++.+++++++.+++++++.+++++++.+++++++.++++++  ",
"  +++++++.+++++++.+++++++.+++++++.+++++++.+++++++.++++++  ",
"  ......................................................  ",
"  +++++++.+++++++.+++++++.+++++++.+++++++.+++++++.++++++  ",
"  +++++++.+++++++.+++++++.+++++++.+++++++.+++++++.++++++  ",
"  +++++++.+++++++.+++++++.+++++++.+++++++.+++++++.++++++  ",
"  +++++++.+++++++.+++++++.+++++++.+++++++.+++++++.++++++  ",
"                                                          ",
"  @@@@@@@@@@@@@@@@@@@@@@@@@@@@@@@@@@@@@@@@@@@@@@@@@@@@@@  ",
"                                                          ",
"                                                          "};
