/* XPM */
static char * numbers_xpm[] = {
"48 9 2 1",
".	c #FFFFFF",
"+	c None",
"...++.++...+...+++.+...+...+...+...+...+.+.+.+.+",
".+.++.++.+.+.+.+.+.+.+.+.+.+.+.+.+.+.+.+.+.+...+",
".+.++.++++.+++.+.+.+.+++.+++++.+.+.+.+.+.+.+...+",
".+.++.++++.+++.+.+.+.+++...+++.+.+.+.+.+.+.+.+.+",
".+.++.++...++..+.+.+...+.+.+++.+...+.+.+..++.+.+",
".+.++.++.+++++.+...+++.+.+.+++.+.+.+...+.+.+.+.+",
".+.++.++.+.+.+.+++.+.+.+.+.+++.+.+.+++.+.+.+.+.+",
"...++.++...+...+++.+...+...+++.+...+...+.+.+.+.+",
"++++++++++++++++++++++++++++++++++++++++++++++++"};
