/* XPM */
static char * ofmspct_xpm[] = {
"22 8 2 1",
" 	c None",
".	c #F0F0F0",
" . .. ....   .... .  .",
".. .  . . . .     .  .",
" . .. . . .  ...    . ",
" .  . . . .     .   . ",
" . .. . . . ....   .  ",
"                   .  ",
"                  .  .",
"                  .  ."};
